<svg viewBox="0 0 230 192" xmlns="http://www.w3.org/2000/svg">
    <title>
        Page 1
    </title>
    <g fill="none" fill-rule="evenodd">
        <path d="M122.273 62.192c-4-2.31-10.546-2.31-14.547 0L2.986 122.664c-4 2.31-3.98 6.053.046 8.318l104.65 58.898c4.024 2.266 10.61 2.266 14.637 0l104.647-58.898c4.026-2.265 4.046-6.01.046-8.318l-104.74-60.472z" fill="#FF8F52" opacity=".2"/>
        <path d="M125.384 2.79c-1.17-.677-2.128-.124-2.128 1.228v63.148c0 1.352.957 3.01 2.128 3.687l78.862 45.53c1.17.677 2.13.124 2.13-1.228V52.007c0-1.352-.96-3.01-2.13-3.687L125.384 2.79z" stroke="#33475C" stroke-width="5" stroke-linecap="round" stroke-linejoin="round"/>
        <path d="M205.76 52.007c0-1.14-.833-2.585-1.82-3.154L125.077 3.32c-.362-.21-.688-.26-.89-.145-.2.117-.317.424-.317.843v35.155l81.89 47.28V52.006z" stroke="#33475C" stroke-width="5" stroke-linecap="round" stroke-linejoin="round"/>
        <path d="M204.247 48.32L125.384 2.79c-1.17-.677-2.128-.124-2.128 1.227V8.18l83.12 47.99v-4.163c0-1.352-.958-3.01-2.13-3.687zm-40.98 4.365c3.85 2.222 6.998.404 6.998-4.04 0-4.445-3.15-9.9-6.998-12.122-3.85-2.223-6.998-.404-6.998 4.04 0 4.445 3.148 9.9 6.997 12.122" stroke="#33475C" stroke-width="5" stroke-linecap="round" stroke-linejoin="round"/>
        <path d="M159.92 55.72c3.068 1.772 5.577.323 5.577-3.218 0-3.542-2.51-7.888-5.576-9.658-3.066-1.77-5.575-.322-5.575 3.22 0 3.54 2.51 7.886 5.576 9.657m-31.644-8.387l28.76 16.462m-28.76-12.93l18.196 10.505m44.986 22.562l10.84 6.205m-18.195-6.788L202.3 93.857m-10.84 1.136l10.84 6.205m-9.097-2.105l9.098 5.208m-10.841-3.103l10.84 6.205m-7.865-1.4l7.865 4.502m-28.57-12.449V83.19c0-.74-.524-1.646-1.164-2.015l-43.124-24.9c-.64-.368-1.164-.066-1.164.673v14.866l45.452 26.242zm4.813-24.861v25.182" stroke="#33475C" stroke-width="5" stroke-linecap="round" stroke-linejoin="round"/>
        <path d="M125.384 2.79c-1.17-.677-2.128-.124-2.128 1.228v63.148c0 1.352.957 3.01 2.128 3.687l78.862 45.53c1.17.677 2.13.124 2.13-1.228V52.007c0-1.352-.96-3.01-2.13-3.687L125.384 2.79z" stroke="#33475C" stroke-width="5" stroke-linecap="round" stroke-linejoin="round"/>
        <path d="M125.384 2.79c-1.17-.677-2.128-.124-2.128 1.228v63.148c0 1.352.957 3.01 2.128 3.687l78.862 45.53c1.17.677 2.13.124 2.13-1.228V52.007c0-1.352-.96-3.01-2.13-3.687L125.384 2.79z" fill="#FFF"/>
        <path d="M125.384 2.79c-1.17-.677-2.128-.124-2.128 1.228v63.148c0 1.352.957 3.01 2.128 3.687l78.862 45.53c1.17.677 2.13.124 2.13-1.228V52.007c0-1.352-.96-3.01-2.13-3.687L125.384 2.79z" stroke="#33475C" stroke-linecap="round" stroke-linejoin="round"/>
        <path d="M205.76 52.007c0-1.14-.833-2.585-1.82-3.154L125.077 3.32c-.362-.21-.688-.26-.89-.145-.2.117-.317.424-.317.843v35.155l81.89 47.28V52.006z" fill="#E5F6F9"/>
        <path d="M204.247 48.32L125.384 2.79c-1.17-.677-2.128-.124-2.128 1.227V8.18l83.12 47.99v-4.163c0-1.352-.958-3.01-2.13-3.687" fill="#CBD6E3"/>
        <path d="M204.247 48.32L125.384 2.79c-1.17-.677-2.128-.124-2.128 1.227V8.18l83.12 47.99v-4.163c0-1.352-.958-3.01-2.13-3.687z" stroke="#33475C" stroke-linecap="round" stroke-linejoin="round"/>
        <path d="M163.267 52.685c3.85 2.222 6.998.404 6.998-4.04 0-4.445-3.15-9.9-6.998-12.122-3.85-2.223-6.998-.404-6.998 4.04 0 4.445 3.148 9.9 6.997 12.122" fill="#00A4BF" opacity=".5"/>
        <path d="M159.92 55.72c3.068 1.772 5.577.323 5.577-3.218 0-3.542-2.51-7.888-5.576-9.658-3.066-1.77-5.575-.322-5.575 3.22 0 3.54 2.51 7.886 5.576 9.657" fill="#FF8F52" opacity=".5"/>
        <path d="M128.278 47.334l28.76 16.462" fill="#33475C"/>
        <path d="M128.278 47.334l28.76 16.462" stroke="#EBF0F7" stroke-linecap="round" stroke-linejoin="round"/>
        <path d="M128.278 50.866l18.196 10.505" fill="#33475C"/>
        <path d="M128.278 50.866l18.196 10.505" stroke="#EBF0F7" stroke-linecap="round" stroke-linejoin="round"/>
        <path d="M191.46 83.933l10.84 6.205" fill="#33475C"/>
        <path d="M191.46 83.933l10.84 6.205" stroke="#EBF0F7" stroke-linecap="round" stroke-linejoin="round"/>
        <path d="M184.105 83.35L202.3 93.857" fill="#33475C"/>
        <path d="M184.105 83.35L202.3 93.857" stroke="#EBF0F7" stroke-linecap="round" stroke-linejoin="round"/>
        <path d="M191.46 94.993l10.84 6.205" fill="#33475C"/>
        <path d="M191.46 94.993l10.84 6.205" stroke="#EBF0F7" stroke-linecap="round" stroke-linejoin="round"/>
        <path d="M193.203 99.093l9.098 5.208" fill="#33475C"/>
        <path d="M193.203 99.093l9.098 5.208" stroke="#EBF0F7" stroke-linecap="round" stroke-linejoin="round"/>
        <path d="M191.46 101.198l10.84 6.205" fill="#33475C"/>
        <path d="M191.46 101.198l10.84 6.205" stroke="#EBF0F7" stroke-linecap="round" stroke-linejoin="round"/>
        <path d="M194.435 106.003l7.865 4.502" fill="#33475C"/>
        <path d="M194.435 106.003l7.865 4.502" stroke="#EBF0F7" stroke-linecap="round" stroke-linejoin="round"/>
        <path d="M173.73 98.056V83.19c0-.74-.524-1.646-1.164-2.015l-43.124-24.9c-.64-.368-1.164-.066-1.164.673v14.866l45.452 26.242z" fill="#E5F6F9"/>
        <path d="M178.543 73.195v25.182" fill="#33475C"/>
        <path d="M178.543 73.195v25.182" stroke="#E5F6F9" stroke-width=".5" stroke-linecap="round" stroke-linejoin="round"/>
        <path d="M125.384 2.79c-1.17-.677-2.128-.124-2.128 1.228v63.148c0 1.352.957 3.01 2.128 3.687l78.862 45.53c1.17.677 2.13.124 2.13-1.228V52.007c0-1.352-.96-3.01-2.13-3.687L125.384 2.79z" stroke="#33475C" stroke-linecap="round" stroke-linejoin="round"/>
        <path d="M58.135 117.968h.014-.015z" fill="#33475C"/>
        <path d="M29.213 122.51c-.796-.777-1.625-2.11-1.625-4.316V58.742c0-2.816 1.995-6.27 4.434-7.68l15.14-8.74 19.573-11.3L86.31 19.72l15.14-8.74c1.278-.74 2.43-.768 3.242-.228l.01-.002 3.062 2.037-1.88 1.08v62.358l-19.575 11.3-19.574 11.302-19.574 11.3-16.502 9.528v3.822l-.852-.568-.595-.397z" stroke="#33475C" stroke-width="5" stroke-linecap="round" stroke-linejoin="round"/>
        <path d="M32.434 128.595c-.975-.563-1.774-1.946-1.774-3.072v-2.048l5.495-1.264-.206 2.308 14.284-8.248 19.574-11.3 39.147-22.602 39.148 22.6 13.283 7.67v-.64h3.685v4.253h-.002c.01.935-.598 1.87-1.826 2.58l-15.14 8.74-19.573 11.302-19.575 11.3-15.14 8.742c-2.438 1.408-6.428 1.408-8.867 0l-15.14-8.74-19.574-11.302-17.8-10.277z" stroke="#33475C" stroke-width="5" stroke-linecap="round" stroke-linejoin="round"/>
        <path d="M50.234 134.776l19.574 11.3 15.14 8.742c2.44 1.408 6.43 1.408 8.867 0l15.14-8.74 19.574-11.302 19.573-11.3 15.14-8.742c2.438-1.408 2.438-3.712 0-5.12l-15.14-8.74-39.148-22.602-39.147 22.6-19.574 11.302-19.574 11.3 19.574 11.302" stroke="#33475C" stroke-width="5" stroke-linecap="round" stroke-linejoin="round"/>
        <path d="M89.38 89.573l-19.573 11.3-19.574 11.302-19.573 11.3V60.79c0-2.816 1.995-6.27 4.434-7.68l15.14-8.74 19.573-11.302 19.574-11.3 15.14-8.74c2.44-1.41 4.434-.257 4.435 2.558v62.686l-19.574 11.3" stroke="#33475C" stroke-width="5" stroke-linecap="round" stroke-linejoin="round"/>
        <path d="M101.78 21.133c1.462-.845 2.66-.154 2.66 1.536v49.55c0 1.688-1.198 3.762-2.66 4.606l-63.944 36.918c-1.463.845-2.66.153-2.66-1.536v-49.55c0-1.69 1.197-3.763 2.66-4.608l63.943-36.917zm-7.934 111.74c-2.068-1.194-2.068-3.148 0-4.342l23.374-13.493c2.068-1.194 5.452-1.194 7.52 0l12.053 6.96c2.068 1.193 2.068 3.147 0 4.34l-23.373 13.495c-2.068 1.194-5.452 1.194-7.52 0l-12.054-6.96z" stroke="#33475C" stroke-width="5" stroke-linecap="round" stroke-linejoin="round"/>
        <path d="M93.846 132.873c-2.068-1.194-2.068-3.148 0-4.342l23.374-13.493c2.068-1.194 5.452-1.194 7.52 0l12.053 6.96c2.068 1.193 2.068 3.147 0 4.34l-23.373 13.495c-2.068 1.194-5.452 1.194-7.52 0l-12.054-6.96zm-41.313-8.886c-2.068-1.194-2.068-3.148 0-4.342L104.21 89.81c2.068-1.194 5.452-1.194 7.52 0l17.673 10.204c2.068 1.194 2.068 3.147 0 4.34l-51.676 29.837c-2.068 1.195-5.452 1.195-7.52 0l-17.674-10.203z" stroke="#33475C" stroke-width="5" stroke-linecap="round" stroke-linejoin="round"/>
        <path d="M52.533 123.987c-2.068-1.194-2.068-3.148 0-4.342L104.21 89.81c2.068-1.194 5.452-1.194 7.52 0l17.673 10.204c2.068 1.194 2.068 3.147 0 4.34l-51.676 29.837c-2.068 1.195-5.452 1.195-7.52 0l-17.674-10.203zM41.13 117.43l9.104-5.256 19.573-11.3 30.52-17.62 3.443 1.99-59.196 34.176z" stroke="#33475C" stroke-width="5" stroke-linecap="round" stroke-linejoin="round"/>
        <path d="M29.213 122.51c-.796-.777-1.625-2.11-1.625-4.316V58.742c0-2.816 1.995-6.27 4.434-7.68l15.14-8.74 19.573-11.3L86.31 19.72l15.14-8.74c1.278-.74 2.43-.768 3.242-.228l.01-.002 3.062 2.037-1.88 1.08v62.358l-19.575 11.3-19.574 11.302-19.574 11.3-16.502 9.528v3.822l-.852-.568-.595-.397z" fill="#CBD6E3"/>
        <path d="M29.213 122.51c-.796-.777-1.625-2.11-1.625-4.316V58.742c0-2.816 1.995-6.27 4.434-7.68l15.14-8.74 19.573-11.3L86.31 19.72l15.14-8.74c1.278-.74 2.43-.768 3.242-.228l.01-.002 3.062 2.037-1.88 1.08v62.358l-19.575 11.3-19.574 11.302-19.574 11.3-16.502 9.528v3.822l-.852-.568-.595-.397z" stroke="#33475C" stroke-linecap="round" stroke-linejoin="round"/>
        <path d="M32.434 128.595c-.975-.563-1.774-1.946-1.774-3.072v-2.048l5.495-1.264-.206 2.308 14.284-8.248 19.574-11.3 39.147-22.602 39.148 22.6 13.283 7.67v-.64h3.685v4.253h-.002c.01.935-.598 1.87-1.826 2.58l-15.14 8.74-19.573 11.302-19.575 11.3-15.14 8.742c-2.438 1.408-6.428 1.408-8.867 0l-15.14-8.74-19.574-11.302-17.8-10.277z" fill="#CBD6E3"/>
        <path d="M32.434 128.595c-.975-.563-1.774-1.946-1.774-3.072v-2.048l5.495-1.264-.206 2.308 14.284-8.248 19.574-11.3 39.147-22.602 39.148 22.6 13.283 7.67v-.64h3.685v4.253h-.002c.01.935-.598 1.87-1.826 2.58l-15.14 8.74-19.573 11.302-19.575 11.3-15.14 8.742c-2.438 1.408-6.428 1.408-8.867 0l-15.14-8.74-19.574-11.302-17.8-10.277z" stroke="#33475C" stroke-linecap="round" stroke-linejoin="round"/>
        <path d="M50.234 134.776l19.574 11.3 15.14 8.742c2.44 1.408 6.43 1.408 8.867 0l15.14-8.74 19.574-11.302 19.573-11.3 15.14-8.742c2.438-1.408 2.438-3.712 0-5.12l-15.14-8.74-39.148-22.602-39.147 22.6-19.574 11.302-19.574 11.3 19.574 11.302" fill="#E4EBEF"/>
        <path d="M50.234 134.776l19.574 11.3 15.14 8.742c2.44 1.408 6.43 1.408 8.867 0l15.14-8.74 19.574-11.302 19.573-11.3 15.14-8.742c2.438-1.408 2.438-3.712 0-5.12l-15.14-8.74-39.148-22.602-39.147 22.6-19.574 11.302-19.574 11.3 19.574 11.302" stroke="#33475C" stroke-linecap="round" stroke-linejoin="round"/>
        <path d="M89.38 89.573l-19.573 11.3-19.574 11.302-19.573 11.3V60.79c0-2.816 1.995-6.27 4.434-7.68l15.14-8.74 19.573-11.302 19.574-11.3 15.14-8.74c2.44-1.41 4.434-.257 4.435 2.558v62.686l-19.574 11.3" fill="#32475C"/>
        <path d="M89.38 89.573l-19.573 11.3-19.574 11.302-19.573 11.3V60.79c0-2.816 1.995-6.27 4.434-7.68l15.14-8.74 19.573-11.302 19.574-11.3 15.14-8.74c2.44-1.41 4.434-.257 4.435 2.558v62.686l-19.574 11.3" stroke="#33475C" stroke-linecap="round" stroke-linejoin="round"/>
        <path d="M101.78 21.133c1.462-.845 2.66-.154 2.66 1.536v49.55c0 1.688-1.198 3.762-2.66 4.606l-63.944 36.918c-1.463.845-2.66.153-2.66-1.536v-49.55c0-1.69 1.197-3.763 2.66-4.608l63.943-36.917z" fill="#415A77"/>
        <path d="M93.846 132.873c-2.068-1.194-2.068-3.148 0-4.342l23.374-13.493c2.068-1.194 5.452-1.194 7.52 0l12.053 6.96c2.068 1.193 2.068 3.147 0 4.34l-23.373 13.495c-2.068 1.194-5.452 1.194-7.52 0l-12.054-6.96z" fill="#EBF0F7"/>
        <path d="M93.846 132.873c-2.068-1.194-2.068-3.148 0-4.342l23.374-13.493c2.068-1.194 5.452-1.194 7.52 0l12.053 6.96c2.068 1.193 2.068 3.147 0 4.34l-23.373 13.495c-2.068 1.194-5.452 1.194-7.52 0l-12.054-6.96z" stroke="#33475C"/>
        <path d="M52.533 123.987c-2.068-1.194-2.068-3.148 0-4.342L104.21 89.81c2.068-1.194 5.452-1.194 7.52 0l17.673 10.204c2.068 1.194 2.068 3.147 0 4.34l-51.676 29.837c-2.068 1.195-5.452 1.195-7.52 0l-17.674-10.203z" fill="#CBD6E3"/>
        <path d="M52.533 123.987c-2.068-1.194-2.068-3.148 0-4.342L104.21 89.81c2.068-1.194 5.452-1.194 7.52 0l17.673 10.204c2.068 1.194 2.068 3.147 0 4.34l-51.676 29.837c-2.068 1.195-5.452 1.195-7.52 0l-17.674-10.203z" stroke="#33475C" stroke-linecap="round" stroke-linejoin="round"/>
        <path fill="#415A77" d="M41.13 117.43l9.104-5.256 19.573-11.3 30.52-17.62 3.443 1.99-59.196 34.176"/>
        <path stroke="#33475C" stroke-linecap="round" stroke-linejoin="round" d="M41.13 117.43l9.104-5.256 19.573-11.3 30.52-17.62 3.443 1.99-59.196 34.176z"/>
        <path fill="#E6EFF7" opacity=".25" d="M52.468 105.296l-4.864 2.808 15.612-64.707 4.865-2.81m6.441 51.976L56.69 102.858 72.302 38.15l17.832-10.295"/>
        <path fill="#E6EFF7" opacity=".25" d="M70.47 94.903l-9.726 5.614L76.357 35.81l9.724-5.615"/>
        <path stroke="#33475C" stroke-width="5" stroke-linecap="round" stroke-linejoin="round" d="M164.973 62.88v11.64L78.86 124.234v-11.637zM96.39 108.327l2.98-1.72m20.1-11.605l-5.122 2.957m11.092-6.404l6.51-3.76"/>
        <path d="M150.774 74.465c.476-.275.866-.05.866.5v2.737c0 .55-.39 1.225-.866 1.5l-15.53 8.965c-.475.275-.865.05-.865-.5V84.93c0-.55.39-1.225.865-1.5l15.53-8.965zM102.153 105l9.692-5.597m9.761-5.633l1.674-.968" stroke="#33475C" stroke-width="5" stroke-linecap="round" stroke-linejoin="round"/>
        <path fill="#E5F6F9" d="M164.973 62.88v11.64L78.86 124.234v-11.637"/>
        <path stroke="#33475C" stroke-linecap="round" stroke-linejoin="round" d="M164.973 62.88v11.64L78.86 124.234v-11.637z"/>
        <path d="M96.39 108.327l2.98-1.72m20.1-11.605l-5.122 2.957m11.092-6.404l6.51-3.76" stroke="#9DB2C9" stroke-linecap="round" stroke-linejoin="round"/>
        <path d="M150.774 74.465c.476-.275.866-.05.866.5v2.737c0 .55-.39 1.225-.866 1.5l-15.53 8.965c-.475.275-.865.05-.865-.5V84.93c0-.55.39-1.225.865-1.5l15.53-8.965z" fill="#7CD1DF"/>
        <path d="M102.153 105l9.692-5.597m9.761-5.633l1.674-.968" stroke="#9DB2C9" stroke-linecap="round" stroke-linejoin="round"/>
        <path d="M128.095 29.544c.476-.275.866-.05.866.5v20.072c0 .55-.39 1.225-.865 1.5L91.597 72.688c-.476.275-.866.05-.866-.5V52.116c0-.55.39-1.225.867-1.5l36.498-21.072zM106.93 47.367l17.262-9.965m-3.132 4.983l-14.13 8.157" stroke="#33475C" stroke-width="5" stroke-linecap="round" stroke-linejoin="round"/>
        <path d="M123.326 44.56c.476-.275.866-.05.866.5v2.737c0 .55-.39 1.226-.866 1.5l-15.53 8.966c-.475.275-.865.05-.865-.5v-2.737c0-.55.39-1.226.867-1.5l15.53-8.966zM98.957 60.435c-2.06 1.19-3.746.216-3.746-2.163 0-2.38 1.687-5.298 3.747-6.488 2.06-1.19 3.746-.216 3.746 2.163 0 2.38-1.686 5.3-3.746 6.488" stroke="#33475C" stroke-width="5" stroke-linecap="round" stroke-linejoin="round"/>
        <path d="M100.748 62.06c-1.642.948-2.985.172-2.985-1.723 0-1.896 1.343-4.222 2.985-5.17 1.642-.947 2.985-.172 2.985 1.724s-1.343 4.222-2.985 5.17" stroke="#33475C" stroke-width="5" stroke-linecap="round" stroke-linejoin="round"/>
        <path d="M128.095 29.544c.476-.275.866-.05.866.5v20.072c0 .55-.39 1.225-.865 1.5L91.597 72.688c-.476.275-.866.05-.866-.5V52.116c0-.55.39-1.225.867-1.5l36.498-21.072z" fill="#E5F6F9"/>
        <path d="M128.095 29.544c.476-.275.866-.05.866.5v20.072c0 .55-.39 1.225-.865 1.5L91.597 72.688c-.476.275-.866.05-.866-.5V52.116c0-.55.39-1.225.867-1.5l36.498-21.072z" stroke="#33475C" stroke-linecap="round" stroke-linejoin="round"/>
        <path d="M106.93 47.367l17.262-9.965m-3.132 4.983l-14.13 8.157" stroke="#9DB2C9" stroke-linecap="round" stroke-linejoin="round"/>
        <path d="M123.326 44.56c.476-.275.866-.05.866.5v2.737c0 .55-.39 1.226-.866 1.5l-15.53 8.966c-.475.275-.865.05-.865-.5v-2.737c0-.55.39-1.226.867-1.5l15.53-8.966z" fill="#7CD1DF"/>
        <path d="M98.957 60.435c-2.06 1.19-3.746.216-3.746-2.163 0-2.38 1.687-5.298 3.747-6.488 2.06-1.19 3.746-.216 3.746 2.163 0 2.38-1.686 5.3-3.746 6.488" fill="#00A4BF" opacity=".5"/>
        <path d="M100.748 62.06c-1.642.948-2.985.172-2.985-1.723 0-1.896 1.343-4.222 2.985-5.17 1.642-.947 2.985-.172 2.985 1.724s-1.343 4.222-2.985 5.17" fill="#FF8F52" opacity=".5"/>
        <path d="M183.682 100.144c.27-.156.49-.028.49.283v13.17c0 .312-.22.694-.49.85l-20.675 11.935c-.27.156-.49.03-.49-.282v-13.17c0-.31.22-.694.49-.85l20.675-11.936zm-4.426 6.501l1.21-.698m-4.862 2.806l2.124-1.226m-11.658 6.73l1.57-.906" stroke="#33475C" stroke-width="5" stroke-linecap="round" stroke-linejoin="round"/>
        <path d="M180.327 108.832c.428-.247.78-.045.78.45v2.46c0 .495-.352 1.102-.78 1.35l-13.965 8.062c-.428.248-.78.045-.78-.45v-2.46c0-.495.352-1.102.78-1.35l13.965-8.062zm-10.909 3.492l4.403-2.542" stroke="#33475C" stroke-width="5" stroke-linecap="round" stroke-linejoin="round"/>
        <path d="M183.682 100.144c.27-.156.49-.028.49.283v13.17c0 .312-.22.694-.49.85l-20.675 11.935c-.27.156-.49.03-.49-.282v-13.17c0-.31.22-.694.49-.85l20.675-11.936z" fill="#E5F6F9"/>
        <path d="M183.682 100.144c.27-.156.49-.028.49.283v13.17c0 .312-.22.694-.49.85l-20.675 11.935c-.27.156-.49.03-.49-.282v-13.17c0-.31.22-.694.49-.85l20.675-11.936z" stroke="#33475C" stroke-linecap="round" stroke-linejoin="round"/>
        <path d="M179.256 106.645l1.21-.698m-4.862 2.806l2.124-1.226m-11.658 6.73l1.57-.906" stroke="#9DB2C9" stroke-linecap="round" stroke-linejoin="round"/>
        <path d="M180.327 108.832c.428-.247.78-.045.78.45v2.46c0 .495-.352 1.102-.78 1.35l-13.965 8.062c-.428.248-.78.045-.78-.45v-2.46c0-.495.352-1.102.78-1.35l13.965-8.062z" fill="#7CD1DF"/>
        <path d="M169.418 112.324l4.403-2.542" stroke="#9DB2C9" stroke-linecap="round" stroke-linejoin="round"/>
        <path d="M183.44 139.384c-.267 0-.53-.05-.78-.145-.54-.21-.98-.628-1.213-1.152l-1.536-3.47-2.505 1.11a2.179 2.179 0 0 1-3.062-1.991l.006-16.04c0-.862.507-1.643 1.294-1.994a2.185 2.185 0 0 1 2.352.384l11.876 10.774a2.18 2.18 0 0 1-.583 3.606l-2.504 1.108 1.535 3.468c.234.528.248 1.136.04 1.67a2.19 2.19 0 0 1-1.15 1.205l-2.888 1.28a2.14 2.14 0 0 1-.883.187" fill="#E5F6F9"/>
        <path d="M176.528 114.265a3.434 3.434 0 0 0-3.43 3.429l-.004 16.04c0 1.166.583 2.24 1.56 2.875a3.42 3.42 0 0 0 3.27.254l1.35-.597 1.03 2.326a3.448 3.448 0 0 0 1.908 1.813c.384.15.8.227 1.227.227a3.4 3.4 0 0 0 1.394-.297l2.883-1.277a3.41 3.41 0 0 0 1.81-1.902c.33-.85.308-1.782-.062-2.62l-1.03-2.327 1.36-.603a3.414 3.414 0 0 0 1.998-2.59 3.416 3.416 0 0 0-1.084-3.086l-11.88-10.776a3.415 3.415 0 0 0-2.302-.89m0 2.5c.226 0 .45.083.624.242l11.88 10.78a.927.927 0 0 1-.249 1.536l-3.646 1.615 2.04 4.61a.93.93 0 0 1-.472 1.225l-2.89 1.28a.914.914 0 0 1-.712.017.92.92 0 0 1-.515-.49l-2.043-4.61-3.648 1.614a.922.922 0 0 1-.883-.07.932.932 0 0 1-.423-.78l.004-16.04a.93.93 0 0 1 .931-.93" fill="#33475C"/>
        <path d="M194.73 99.602l-10.373 5.99" fill="#FFF"/>
        <path d="M194.73 99.603l-.866.5" stroke="#33475C" stroke-linecap="round" stroke-linejoin="round"/>
        <path d="M192.136 101.1l-6.913 3.99" stroke="#33475C" stroke-linecap="round" stroke-linejoin="round" stroke-dasharray="1.996,1.996,0,0"/>
        <path d="M185.223 105.09l-.866.5" stroke="#33475C" stroke-linecap="round" stroke-linejoin="round"/>
        <path d="M180.417 60.059l-14.364 8.291" fill="#FFF"/>
        <path d="M180.417 60.06l-.866.5" stroke="#33475C" stroke-linecap="round" stroke-linejoin="round"/>
        <path d="M177.746 61.6l-10.827 6.25" stroke="#33475C" stroke-linecap="round" stroke-linejoin="round" stroke-dasharray="2.084,2.084,0,0"/>
        <path d="M166.92 67.85l-.867.5" stroke="#33475C" stroke-linecap="round" stroke-linejoin="round"/>
        <path d="M153.13 103.22l-14.345 8.282" fill="#FFF"/>
        <path d="M153.13 103.22l-.865.5" stroke="#33475C" stroke-linecap="round" stroke-linejoin="round"/>
        <path d="M150.463 104.76l-10.813 6.242" stroke="#33475C" stroke-linecap="round" stroke-linejoin="round" stroke-dasharray="2.081,2.081,0,0"/>
        <path d="M139.65 111.002l-.866.5" stroke="#33475C" stroke-linecap="round" stroke-linejoin="round"/>
        <path d="M87.39 63.37L71.404 72.6" fill="#FFF"/>
        <path d="M87.39 63.37l-.865.5" stroke="#FFF" stroke-linecap="round" stroke-linejoin="round"/>
        <path d="M84.94 64.786L72.27 72.1" stroke="#FFF" stroke-linecap="round" stroke-linejoin="round" stroke-dasharray="1.829,1.829,0,0"/>
        <path d="M72.27 72.1l-.865.5" stroke="#FFF" stroke-linecap="round" stroke-linejoin="round"/>
        <path stroke="#33475C" stroke-width="5" stroke-linecap="round" stroke-linejoin="round" d="M157.673 141.053l-3.865 2.265 1.418.926.934 1.592.75 2.51 3.697-2.423-.294-2.007-1.493-2.237z"/>
        <path stroke="#33475C" stroke-width="5" stroke-linecap="round" stroke-linejoin="round" d="M153.807 143.317l-2.492 1.356 1.42.927.932 1.59.75 2.512 2.49-1.356-.47-1.837-1.21-2.266z"/>
        <path stroke="#33475C" stroke-width="5" stroke-linecap="round" stroke-linejoin="round" d="M151.384 144.7l-32.115 18.48 1.42.927.932 1.59.748 2.513 32.115-18.48-.47-1.838-1.212-2.266z"/>
        <path d="M161.31 145.123c0-1.545-1.094-3.44-2.43-4.214-.59-.34-1.124-.395-1.547-.233l-.01-.018-.11.063a1.236 1.236 0 0 0-.095.054l-38.795 22.4.025.048a1.177 1.177 0 0 0-.665.446l-.006-.01-4.678 6.563 7.97-.948-.004-.008a1.2 1.2 0 0 0 .394-.143l.005.008.05-.028.01-.006 39.146-22.383-.002-.01c.456-.247.743-.793.743-1.582z" stroke="#33475C" stroke-width="5" stroke-linecap="round" stroke-linejoin="round"/>
        <path d="M122.08 167.602c0-1.505-1.065-3.352-2.37-4.104-.86-.498-1.61-.387-2.026.174l-.006-.01-4.678 6.562 7.97-.948-.004-.008c.667-.1 1.115-.694 1.115-1.666z" stroke="#33475C" stroke-width="5" stroke-linecap="round" stroke-linejoin="round"/>
        <path d="M115.99 167.22c-.28-.16-.535-.18-.728-.088l-.326.446-1.936 2.646 3.282-.38.492-.056c.185-.12.3-.354.3-.687 0-.688-.488-1.534-1.085-1.88zm36.565-23.83c.438-.223 1.022-.183 1.665.19 1.343.773 2.44 2.675 2.44 4.224 0 .74-.255 1.26-.66 1.53l-2.377 1.372c.364-.284.59-.782.59-1.477 0-1.556-1.1-3.464-2.447-4.242-.618-.357-1.18-.403-1.61-.212l2.4-1.386zm-31.663 25.383a.506.506 0 0 0-.072.017l-2.747.327.002-.016c0-1.043-.682-2.223-1.585-2.745-.03-.017-.06-.024-.09-.04l1.623-2.275a.47.47 0 0 0 .063-.07c.39-.528 1.09-.204 1.375-.04 1.15.664 2.12 2.345 2.12 3.672 0 .32-.067 1.077-.688 1.17z" stroke="#33475C" stroke-width="5" stroke-linecap="round" stroke-linejoin="round"/>
        <path fill="#FBA9BE" d="M157.673 141.053l-3.865 2.265 1.418.926.934 1.592.75 2.51 3.697-2.423-.294-2.007-1.493-2.237"/>
        <path fill="#D4E7F8" d="M153.807 143.317l-2.492 1.356 1.42.927.932 1.59.75 2.512 2.49-1.356-.47-1.837-1.21-2.266"/>
        <path fill="#F7C364" d="M151.384 144.7l-32.115 18.48 1.42.927.932 1.59.748 2.513 32.115-18.48-.47-1.838-1.212-2.266"/>
        <path d="M161.31 145.123c0-1.545-1.094-3.44-2.43-4.214-.59-.34-1.124-.395-1.547-.233l-.01-.018-.11.063a1.236 1.236 0 0 0-.095.054l-38.795 22.4.025.048a1.177 1.177 0 0 0-.665.446l-.006-.01-4.678 6.563 7.97-.948-.004-.008a1.2 1.2 0 0 0 .394-.143l.005.008.05-.028.01-.006 39.146-22.383-.002-.01c.456-.247.743-.793.743-1.582z" stroke="#33475C" stroke-width="2" stroke-linecap="round" stroke-linejoin="round"/>
        <path d="M122.08 167.602c0-1.505-1.065-3.352-2.37-4.104-.86-.498-1.61-.387-2.026.174l-.006-.01-4.678 6.562 7.97-.948-.004-.008c.667-.1 1.115-.694 1.115-1.666" fill="#FFF"/>
        <path d="M122.08 167.602c0-1.505-1.065-3.352-2.37-4.104-.86-.498-1.61-.387-2.026.174l-.006-.01-4.678 6.562 7.97-.948-.004-.008c.667-.1 1.115-.694 1.115-1.666z" stroke="#33475C" stroke-linecap="round" stroke-linejoin="round"/>
        <path d="M115.99 167.22c-.28-.16-.535-.18-.728-.088l-.326.446-1.936 2.646 3.282-.38.492-.056c.185-.12.3-.354.3-.687 0-.688-.488-1.534-1.085-1.88" fill="#33475C"/>
        <path d="M115.99 167.22c-.28-.16-.535-.18-.728-.088l-.326.446-1.936 2.646 3.282-.38.492-.056c.185-.12.3-.354.3-.687 0-.688-.488-1.534-1.085-1.88z" stroke="#33475C" stroke-width="2" stroke-linecap="round" stroke-linejoin="round"/>
        <path d="M152.555 143.39c.438-.223 1.022-.183 1.665.19 1.343.773 2.44 2.675 2.44 4.224 0 .74-.255 1.26-.66 1.53l-2.377 1.372c.364-.284.59-.782.59-1.477 0-1.556-1.1-3.464-2.447-4.242-.618-.357-1.18-.403-1.61-.212l2.4-1.386z" stroke="#33475C" stroke-linecap="round" stroke-linejoin="round"/>
        <path d="M120.892 168.773a.506.506 0 0 0-.072.017l-2.747.327.002-.016c0-1.043-.682-2.223-1.585-2.745-.03-.017-.06-.024-.09-.04l1.623-2.275a.47.47 0 0 0 .063-.07c.39-.528 1.09-.204 1.375-.04 1.15.664 2.12 2.345 2.12 3.672 0 .32-.067 1.077-.688 1.17" fill="#FEF9F0"/>
        <path d="M125.808 57.597l21.147 12.21" fill="#FFF"/>
        <path d="M125.81 57.597l.865.5" stroke="#33475C" stroke-linecap="round" stroke-linejoin="round"/>
        <path d="M128.44 59.116l17.65 10.19" stroke="#33475C" stroke-linecap="round" stroke-linejoin="round" stroke-dasharray="2.038,2.038,0,0"/>
        <path d="M146.09 69.306l.866.5" stroke="#33475C" stroke-linecap="round" stroke-linejoin="round"/>
        <path d="M108.153 93.817L59.46 65.704" fill="#FFF"/>
        <path d="M108.153 93.817l-.866-.5" stroke="#FFF" stroke-linecap="round" stroke-linejoin="round"/>
        <path d="M105.548 92.313l-45.22-26.108" stroke="#FFF" stroke-linecap="round" stroke-linejoin="round" stroke-dasharray="2.008,2.008,0,0"/>
        <path d="M60.327 66.205l-.866-.5" stroke="#FFF" stroke-linecap="round" stroke-linejoin="round"/>
        <path d="M123.256 102.537l15.53 8.965" fill="#FFF"/>
        <path d="M123.256 102.537l.866.5" stroke="#33475C" stroke-linecap="round" stroke-linejoin="round"/>
        <path d="M125.655 103.922l12.263 7.08" stroke="#33475C" stroke-linecap="round" stroke-linejoin="round" stroke-dasharray="1.77,1.77,0,0"/>
        <path d="M137.918 111.002l.866.5" stroke="#33475C" stroke-linecap="round" stroke-linejoin="round"/>
        <path d="M132.37 37.402l6.733-3.887" fill="#FFF"/>
        <path d="M132.37 37.402l.867-.5" stroke="#33475C" stroke-linecap="round" stroke-linejoin="round"/>
        <path d="M134.904 35.94l3.333-1.925" stroke="#33475C" stroke-linecap="round" stroke-linejoin="round" stroke-dasharray="1.924,1.924,0,0"/>
        <path d="M138.237 34.015l.866-.5" stroke="#33475C" stroke-linecap="round" stroke-linejoin="round"/>
    </g>
</svg>
